<?xml version="1.0" encoding="utf-8"?>
<!-- Generator: Adobe Illustrator 21.0.2, SVG Export Plug-In . SVG Version: 6.00 Build 0)  -->
<svg version="1.1" id="Layer_1" xmlns="http://www.w3.org/2000/svg" xmlns:xlink="http://www.w3.org/1999/xlink" x="0px" y="0px"
	 viewBox="0 0 21 20" style="enable-background:new 0 0 21 20;" xml:space="preserve">
<style type="text/css">
	.st0{fill:url(#SVGID_1_);}
	.st1{fill:#4088CB;}
</style>
<linearGradient id="SVGID_1_" gradientUnits="userSpaceOnUse" x1="10.4683" y1="841.0431" x2="10.4683" y2="825.0194" gradientTransform="matrix(1 0 0 1 0 -822)">
	<stop  offset="0" style="stop-color:#A8BBC6"/>
	<stop  offset="1" style="stop-color:#45525B"/>
</linearGradient>
<path class="st0" d="M11.9,18.3c-0.7,0.9-2.1,0.9-2.9,0l-5.1-6.4c-0.8-1-0.1-2.4,1.1-2.4h1.4V4.8c0-0.2,0-0.5,0.1-0.7
	C6.7,3.9,6.8,3.7,7,3.6c0.2-0.2,0.4-0.3,0.6-0.4C7.8,3.1,8.1,3,8.3,3h4.4c0.5,0,0.9,0.2,1.3,0.5c0.3,0.3,0.5,0.8,0.5,1.3v4.7h1.4
	c1.2,0,1.9,1.4,1.2,2.4L11.9,18.3z M9.7,17.8c0.1,0.1,0.2,0.2,0.3,0.3c0.1,0.1,0.3,0.1,0.4,0.1c0.1,0,0.3,0,0.4-0.1
	c0.1-0.1,0.2-0.2,0.3-0.3l5.1-6.4c0.3-0.4,0-1-0.5-1h-1.8c-0.1,0-0.1,0-0.2,0c-0.1,0-0.1-0.1-0.1-0.1l-0.1-0.1c0-0.1,0-0.1,0-0.2
	V4.9c0-0.3-0.1-0.5-0.3-0.7C13,4,12.8,3.9,12.5,3.9H8.1c0.1,0-0.1,0-0.2,0.1C7.8,4,7.7,4.1,7.6,4.2C7.5,4.3,7.5,4.4,7.4,4.5
	c0,0.1-0.1,0.2-0.1,0.4V10c0,0.1,0,0.2-0.1,0.3S7,10.4,6.9,10.4H5.1c-0.5,0-0.8,0.6-0.5,1L9.7,17.8z"/>
<path class="st1" d="M11.9,18.3c-0.7,0.9-2.1,0.9-2.9,0l-5.1-6.4c-0.8-1-0.1-2.4,1.1-2.4h1.4V4.8c0-0.2,0-0.5,0.1-0.7
	C6.7,3.9,6.8,3.7,7,3.6c0.2-0.2,0.4-0.3,0.6-0.4C7.8,3.1,8.1,3,8.3,3h4.4c0.5,0,0.9,0.2,1.3,0.5c0.3,0.3,0.5,0.8,0.5,1.3v4.7h1.4
	c1.2,0,1.9,1.4,1.2,2.4L11.9,18.3z M9.7,17.8c0.1,0.1,0.2,0.2,0.3,0.3c0.1,0.1,0.3,0.1,0.4,0.1c0.1,0,0.3,0,0.4-0.1
	c0.1-0.1,0.2-0.2,0.3-0.3l5.1-6.4c0.3-0.4,0-1-0.5-1h-1.8c-0.1,0-0.1,0-0.2,0c-0.1,0-0.1-0.1-0.1-0.1l-0.1-0.1c0-0.1,0-0.1,0-0.2
	V4.9c0-0.3-0.1-0.5-0.3-0.7C13,4,12.8,3.9,12.5,3.9H8.1c0.1,0-0.1,0-0.2,0.1C7.8,4,7.7,4.1,7.6,4.2C7.5,4.3,7.5,4.4,7.4,4.5
	c0,0.1-0.1,0.2-0.1,0.4V10c0,0.1,0,0.2-0.1,0.3S7,10.4,6.9,10.4H5.1c-0.5,0-0.8,0.6-0.5,1L9.7,17.8z M4.4,10.4L4.8,10
	c0,0,1.2-0.1,1.3-0.1s0.9,0,0.9,0V7.6L6.9,6.1V4.5l0.6-0.9l2.9-0.2l2.3,0.1l1,0.1l0.4,6.1l2.3,0.6l0.3,1l-2,2.5l-4.2,4.9L9,18.2
	l-5-6.3l-0.1-1.3L4.4,10.4z"/>
</svg>
