<?xml version="1.0" encoding="utf-8"?>
<!-- Generator: Adobe Illustrator 21.0.2, SVG Export Plug-In . SVG Version: 6.00 Build 0)  -->
<svg version="1.1" id="Layer_1" xmlns="http://www.w3.org/2000/svg" xmlns:xlink="http://www.w3.org/1999/xlink" x="0px" y="0px"
	 viewBox="0 0 21 20" style="enable-background:new 0 0 21 20;" xml:space="preserve">
<style type="text/css">
	.st0{fill:url(#SVGID_1_);}
	.st1{fill:url(#SVGID_2_);}
</style>
<linearGradient id="SVGID_1_" gradientUnits="userSpaceOnUse" x1="10.5324" y1="16.8668" x2="10.5324" y2="0.843">
	<stop  offset="0" style="stop-color:#F9B24E"/>
	<stop  offset="1" style="stop-color:#FE7E02"/>
</linearGradient>
<path class="st0" d="M9.1,1.5c0.7-0.9,2.1-0.9,2.9,0L17.1,8c0.8,1,0.1,2.4-1.1,2.4l-1.4,0l0,4.7c0,0.2,0,0.5-0.1,0.7
	c-0.1,0.2-0.2,0.4-0.4,0.6c-0.2,0.2-0.4,0.3-0.6,0.4c-0.2,0.1-0.5,0.1-0.7,0.1l-4.4,0c-0.5,0-0.9-0.2-1.3-0.5
	C6.7,16,6.5,15.5,6.5,15l0-4.7l-1.4,0C3.9,10.4,3.2,8.9,4,8L9.1,1.5z M11.3,2.1c-0.1-0.1-0.2-0.2-0.3-0.3s-0.3-0.1-0.4-0.1
	c-0.1,0-0.3,0-0.4,0.1C10,1.9,9.9,2,9.8,2.1L4.7,8.5c-0.3,0.4,0,1,0.5,1l1.8,0c0.1,0,0.1,0,0.2,0c0.1,0,0.1,0.1,0.1,0.1
	c0,0,0.1,0.1,0.1,0.1c0,0.1,0,0.1,0,0.2l0,5.1c0,0.3,0.1,0.5,0.3,0.7C7.8,15.9,8.1,16,8.3,16l4.4,0c0.1,0,0.3,0,0.4-0.1
	c0.1,0,0.2-0.1,0.3-0.2s0.2-0.2,0.2-0.3c0-0.1,0.1-0.2,0.1-0.4l0-5.1c0-0.1,0-0.2,0.1-0.3s0.2-0.1,0.3-0.1l1.8,0
	c0.5,0,0.8-0.6,0.5-1L11.3,2.1z"/>
<linearGradient id="SVGID_2_" gradientUnits="userSpaceOnUse" x1="10.5208" y1="16.3275" x2="10.5208" y2="1.2442">
	<stop  offset="0" style="stop-color:#F9B24E"/>
	<stop  offset="1" style="stop-color:#FE7E02"/>
</linearGradient>
<path class="st1" d="M9.6,1.2c0,0-4,5-4.1,5.1C5.4,6.5,4,9,4,9l0.7,0.9L6.8,10l0.3,6.1l2.2,0.2h3.6l1-0.4l0.5-6h1.5l0.9-0.6L17,8.8
	l-3.8-5.2l-2.2-2.3H9.6z"/>
</svg>
