<?xml version="1.0" encoding="utf-8"?>
<!-- Generator: Adobe Illustrator 21.0.2, SVG Export Plug-In . SVG Version: 6.00 Build 0)  -->
<svg version="1.1" id="Layer_1" xmlns="http://www.w3.org/2000/svg" xmlns:xlink="http://www.w3.org/1999/xlink" x="0px" y="0px"
	 viewBox="0 0 21 20" style="enable-background:new 0 0 21 20;" xml:space="preserve">
<style type="text/css">
	.st0{fill:#FE7E02;}
</style>
<path class="st0" d="M9.1,1.5c0.7-0.9,2.1-0.9,2.9,0L17.1,8c0.8,1,0.1,2.4-1.1,2.4h-1.4v4.7c0,0.2,0,0.5-0.1,0.7s-0.2,0.4-0.4,0.6
	s-0.4,0.3-0.6,0.4c-0.2,0.1-0.5,0.1-0.7,0.1H8.4c-0.5,0-0.9-0.2-1.3-0.5C6.7,16,6.5,15.5,6.5,15v-4.7H5.1C3.9,10.4,3.2,8.9,4,8
	L9.1,1.5z M11.3,2.1C11.2,2,11.1,1.9,11,1.8s-0.3-0.1-0.4-0.1c-0.1,0-0.3,0-0.4,0.1C10,1.9,9.9,2,9.8,2.1L4.7,8.5
	c-0.3,0.4,0,1,0.5,1H7c0.1,0,0.1,0,0.2,0s0.1,0.1,0.1,0.1l0.1,0.1c0,0.1,0,0.1,0,0.2V15c0,0.3,0.1,0.5,0.3,0.7
	C7.8,15.9,8.1,16,8.3,16h4.4c0.1,0,0.3,0,0.4-0.1c0.1,0,0.2-0.1,0.3-0.2s0.2-0.2,0.2-0.3s0.1-0.2,0.1-0.4V9.9c0-0.1,0-0.2,0.1-0.3
	s0.2-0.1,0.3-0.1h1.8c0.5,0,0.8-0.6,0.5-1L11.3,2.1z"/>
</svg>
